<svg width="150" height="150" viewBox="0 0 150 150" fill="none" xmlns="http://www.w3.org/2000/svg">
<path d="M75 50C88.785 50 100 61.215 100 75C100 88.785 88.785 100 75 100C61.215 100 50 88.785 50 75C50 61.215 61.215 50 75 50ZM75 45C58.4325 45 45 58.4325 45 75C45 91.5675 58.4325 105 75 105C91.5675 105 105 91.5675 105 75C105 58.4325 91.5675 45 75 45ZM63.75 80C61.68 80 60 78.32 60 76.25C60 74.18 61.68 72.5 63.75 72.5C65.82 72.5 67.5 74.18 67.5 76.25C67.5 78.32 65.82 80 63.75 80ZM75 80C72.93 80 71.25 78.32 71.25 76.25C71.25 74.18 72.93 72.5 75 72.5C77.07 72.5 78.75 74.18 78.75 76.25C78.75 78.32 77.07 80 75 80ZM86.25 80C84.18 80 82.5 78.32 82.5 76.25C82.5 74.18 84.18 72.5 86.25 72.5C88.32 72.5 90 74.18 90 76.25C90 78.32 88.32 80 86.25 80Z" fill="black"/>
</svg>
