<svg width="150" height="150" viewBox="0 0 150 150" fill="none" xmlns="http://www.w3.org/2000/svg">
<path d="M75 45C58.4325 45 45 58.4325 45 75C45 91.5675 58.4325 105 75 105C91.5675 105 105 91.5675 105 75C105 58.4325 91.5675 45 75 45ZM94.3825 90.7625C93.73 89.2975 92.41 88.285 89.705 87.66C83.9725 86.3375 78.635 85.1775 81.2225 80.2975C89.085 65.4425 83.305 57.5 75 57.5C66.53 57.5 60.89 65.7475 68.7775 80.2975C71.4425 85.2075 65.9075 86.365 60.295 87.66C57.585 88.285 56.275 89.305 55.6275 90.775C52.115 86.4675 50 80.9775 50 75C50 61.215 61.215 50 75 50C88.785 50 100 61.215 100 75C100 80.9725 97.8875 86.4575 94.3825 90.7625Z" fill="black"/>
</svg>
